<svg width="92" height="20" viewBox="0 0 92 20" fill="none" xmlns="http://www.w3.org/2000/svg">
<path d="M11.7589 1.22514V11.5419C11.7828 12.1367 11.6692 12.729 11.4271 13.2724C11.2348 13.6987 10.9516 14.0774 10.5974 14.3818C10.2896 14.6293 9.93633 14.814 9.55764 14.9253C8.89595 15.1391 8.184 15.1391 7.52231 14.9253C7.12213 14.8172 6.74654 14.6327 6.41615 14.3818C6.05874 14.0778 5.77183 13.6992 5.57546 13.2724C5.34294 12.7263 5.23341 12.1354 5.25468 11.5419V0.00488281H0.000413445V11.5419C-0.0106251 12.7279 0.199465 13.9055 0.619864 15.0141C1.00606 16.0113 1.59355 16.9177 2.34547 17.6765C3.11709 18.4277 4.03629 19.0095 5.04451 19.3848C6.16345 19.7957 7.34861 19.995 8.53998 19.9728C9.73203 19.9914 10.9172 19.7883 12.0354 19.3737C13.0437 18.9984 13.9629 18.4166 14.7345 17.6654C15.4878 16.9099 16.0723 16.0024 16.449 15.003C16.8605 13.8923 17.0667 12.7156 17.0574 11.5308V1.22514V0.00488281H11.7589V1.22514Z" fill="#111111"/>
<path d="M36.1158 0.00512695H35.9941L30.4633 8.77991C30.4633 8.77991 24.7555 0.00512695 24.7224 0.00512695H19.3132V19.973H24.7224V9.55643L30.4302 17.6434L35.961 9.55643V19.973H41.3811V18.7528V1.22539V0.00512695H36.1158Z" fill="#111111"/>
<path d="M43.6594 1.22539V10.1998V18.7639V19.3185V19.9841H44.2899H48.3052H48.9468V19.3407V10.1998L48.9579 1.22539V0.00512695H43.6594V1.22539Z" fill="#111111"/>
<path d="M91.2026 6.11735C90.6985 4.93333 89.9739 3.85655 89.0677 2.94468C88.1568 2.03499 87.0837 1.30496 85.9041 0.792583C84.6799 0.269587 83.3631 0 82.0325 0C80.7019 0 79.3851 0.269587 78.1609 0.792583C76.9801 1.29677 75.9091 2.02788 75.0084 2.94468C74.1136 3.86131 73.3971 4.93727 72.8956 6.11735C72.3741 7.34498 72.1053 8.66561 72.1053 10C72.1053 11.3344 72.3741 12.655 72.8956 13.8826C73.4037 15.0645 74.1278 16.1406 75.0305 17.0553C75.9312 17.9721 77.0022 18.7032 78.1831 19.2074C79.4072 19.7304 80.724 20 82.0546 20C83.3852 20 84.7021 19.7304 85.9262 19.2074C87.1058 18.695 88.1789 17.965 89.0898 17.0553C89.996 16.1434 90.7206 15.0667 91.2247 13.8826C91.7538 12.6541 92.0177 11.3271 91.999 9.98891C92.0063 8.65675 91.735 7.33785 91.2026 6.11735ZM86.4239 11.8859C86.1844 12.4726 85.8394 13.0103 85.4063 13.4722C84.9703 13.9335 84.4527 14.3097 83.8798 14.5815C83.3065 14.8557 82.6787 14.996 82.0436 14.992C81.4048 14.9962 80.7734 14.8559 80.1963 14.5815C79.6284 14.3121 79.1176 13.9355 78.6919 13.4722C78.2623 13.0097 77.9211 12.472 77.6853 11.8859C77.4324 11.2858 77.3044 10.6403 77.3092 9.98891C77.3204 8.70203 77.814 7.46649 78.6919 6.52781C79.1201 6.06736 79.6303 5.69114 80.1963 5.41848C80.7734 5.14412 81.4048 5.00382 82.0436 5.00803C82.6787 5.00396 83.3065 5.14429 83.8798 5.41848C84.4508 5.69357 84.9678 6.06931 85.4063 6.52781C85.8439 6.98192 86.1895 7.51689 86.4239 8.10305C86.6684 8.70177 86.7961 9.34195 86.8 9.98891C86.7992 10.6398 86.6714 11.2842 86.4239 11.8859Z" fill="#111111"/>
<path d="M65.2634 0.00512695H64.5886V0.681817V1.22539V5.28553H69.854V1.22539V0.681817V0.00512695H69.2456H65.2634Z" fill="#111111"/>
<path d="M56.6239 0.00512695H55.9492H51.8896H51.8785H51.2037V0.681817V1.22539V5.28553V18.7639V19.3074V19.9841H51.8896H55.9492H56.6239V19.3074V18.7639V8.41383L64.5883 19.9841H69.1789H69.8536V19.3074V18.7639V17.8098L60.2632 5.28553L56.6239 0.00512695Z" fill="#111111"/>
</svg>
