<svg width="54" height="11" viewBox="0 0 54 11" fill="none" xmlns="http://www.w3.org/2000/svg">
<path d="M10.9707 4.46289C11.0033 4.56055 11.0065 4.66146 10.9805 4.76562C10.9544 4.86979 10.8991 4.95768 10.8145 5.0293L8.63672 6.94336L9.28125 9.77539C9.30078 9.87956 9.29102 9.98047 9.25195 10.0781C9.2194 10.1758 9.16081 10.2572 9.07617 10.3223C8.98503 10.3874 8.88737 10.4199 8.7832 10.4199C8.67904 10.4264 8.58138 10.4036 8.49023 10.3516L6 8.85742L3.50977 10.3516C3.4707 10.3711 3.42513 10.3874 3.37305 10.4004C3.32747 10.4134 3.2819 10.4199 3.23633 10.4199C3.18424 10.4199 3.12891 10.4102 3.07031 10.3906C3.01823 10.3776 2.9694 10.3548 2.92383 10.3223C2.83919 10.2572 2.77734 10.1758 2.73828 10.0781C2.70573 9.98047 2.69922 9.87956 2.71875 9.77539L3.36328 6.94336L1.18555 5.0293C1.10091 4.95768 1.04557 4.86979 1.01953 4.76562C0.99349 4.66146 0.996745 4.56055 1.0293 4.46289C1.06185 4.35872 1.11719 4.27409 1.19531 4.20898C1.27995 4.14388 1.37435 4.10482 1.47852 4.0918L4.36914 3.83789L5.51172 1.16211C5.55078 1.06445 5.61589 0.986328 5.70703 0.927734C5.79818 0.869141 5.89583 0.839844 6 0.839844C6.10417 0.839844 6.20182 0.869141 6.29297 0.927734C6.38411 0.986328 6.44922 1.06445 6.48828 1.16211L7.63086 3.83789L10.5215 4.0918C10.6257 4.10482 10.7168 4.14388 10.7949 4.20898C10.8796 4.27409 10.9382 4.35872 10.9707 4.46289ZM21.5707 4.46289C21.6033 4.56055 21.6065 4.66146 21.5805 4.76562C21.5544 4.86979 21.4991 4.95768 21.4145 5.0293L19.2367 6.94336L19.8813 9.77539C19.9008 9.87956 19.891 9.98047 19.852 10.0781C19.8194 10.1758 19.7608 10.2572 19.6762 10.3223C19.585 10.3874 19.4874 10.4199 19.3832 10.4199C19.279 10.4264 19.1814 10.4036 19.0902 10.3516L16.6 8.85742L14.1098 10.3516C14.0707 10.3711 14.0251 10.3874 13.973 10.4004C13.9275 10.4134 13.8819 10.4199 13.8363 10.4199C13.7842 10.4199 13.7289 10.4102 13.6703 10.3906C13.6182 10.3776 13.5694 10.3548 13.5238 10.3223C13.4392 10.2572 13.3773 10.1758 13.3383 10.0781C13.3057 9.98047 13.2992 9.87956 13.3188 9.77539L13.9633 6.94336L11.7855 5.0293C11.7009 4.95768 11.6456 4.86979 11.6195 4.76562C11.5935 4.66146 11.5967 4.56055 11.6293 4.46289C11.6618 4.35872 11.7172 4.27409 11.7953 4.20898C11.8799 4.14388 11.9743 4.10482 12.0785 4.0918L14.9691 3.83789L16.1117 1.16211C16.1508 1.06445 16.2159 0.986328 16.307 0.927734C16.3982 0.869141 16.4958 0.839844 16.6 0.839844C16.7042 0.839844 16.8018 0.869141 16.893 0.927734C16.9841 0.986328 17.0492 1.06445 17.0883 1.16211L18.2309 3.83789L21.1215 4.0918C21.2257 4.10482 21.3168 4.14388 21.3949 4.20898C21.4796 4.27409 21.5382 4.35872 21.5707 4.46289ZM32.1707 4.46289C32.2033 4.56055 32.2065 4.66146 32.1805 4.76562C32.1544 4.86979 32.0991 4.95768 32.0145 5.0293L29.8367 6.94336L30.4813 9.77539C30.5008 9.87956 30.491 9.98047 30.452 10.0781C30.4194 10.1758 30.3608 10.2572 30.2762 10.3223C30.185 10.3874 30.0874 10.4199 29.9832 10.4199C29.879 10.4264 29.7814 10.4036 29.6902 10.3516L27.2 8.85742L24.7098 10.3516C24.6707 10.3711 24.6251 10.3874 24.573 10.4004C24.5275 10.4134 24.4819 10.4199 24.4363 10.4199C24.3842 10.4199 24.3289 10.4102 24.2703 10.3906C24.2182 10.3776 24.1694 10.3548 24.1238 10.3223C24.0392 10.2572 23.9773 10.1758 23.9383 10.0781C23.9057 9.98047 23.8992 9.87956 23.9188 9.77539L24.5633 6.94336L22.3855 5.0293C22.3009 4.95768 22.2456 4.86979 22.2195 4.76562C22.1935 4.66146 22.1967 4.56055 22.2293 4.46289C22.2618 4.35872 22.3172 4.27409 22.3953 4.20898C22.4799 4.14388 22.5743 4.10482 22.6785 4.0918L25.5691 3.83789L26.7117 1.16211C26.7508 1.06445 26.8159 0.986328 26.907 0.927734C26.9982 0.869141 27.0958 0.839844 27.2 0.839844C27.3042 0.839844 27.4018 0.869141 27.493 0.927734C27.5841 0.986328 27.6492 1.06445 27.6883 1.16211L28.8309 3.83789L31.7215 4.0918C31.8257 4.10482 31.9168 4.14388 31.9949 4.20898C32.0796 4.27409 32.1382 4.35872 32.1707 4.46289ZM42.7707 4.46289C42.8033 4.56055 42.8065 4.66146 42.7805 4.76562C42.7544 4.86979 42.6991 4.95768 42.6145 5.0293L40.4367 6.94336L41.0812 9.77539C41.1008 9.87956 41.091 9.98047 41.052 10.0781C41.0194 10.1758 40.9608 10.2572 40.8762 10.3223C40.785 10.3874 40.6874 10.4199 40.5832 10.4199C40.479 10.4264 40.3814 10.4036 40.2902 10.3516L37.8 8.85742L35.3098 10.3516C35.2707 10.3711 35.2251 10.3874 35.173 10.4004C35.1275 10.4134 35.0819 10.4199 35.0363 10.4199C34.9842 10.4199 34.9289 10.4102 34.8703 10.3906C34.8182 10.3776 34.7694 10.3548 34.7238 10.3223C34.6392 10.2572 34.5773 10.1758 34.5383 10.0781C34.5057 9.98047 34.4992 9.87956 34.5187 9.77539L35.1633 6.94336L32.9855 5.0293C32.9009 4.95768 32.8456 4.86979 32.8195 4.76562C32.7935 4.66146 32.7967 4.56055 32.8293 4.46289C32.8618 4.35872 32.9172 4.27409 32.9953 4.20898C33.0799 4.14388 33.1743 4.10482 33.2785 4.0918L36.1691 3.83789L37.3117 1.16211C37.3508 1.06445 37.4159 0.986328 37.507 0.927734C37.5982 0.869141 37.6958 0.839844 37.8 0.839844C37.9042 0.839844 38.0018 0.869141 38.093 0.927734C38.1841 0.986328 38.2492 1.06445 38.2883 1.16211L39.4309 3.83789L42.3215 4.0918C42.4257 4.10482 42.5168 4.14388 42.5949 4.20898C42.6796 4.27409 42.7382 4.35872 42.7707 4.46289ZM53.3707 4.46289C53.4033 4.56055 53.4065 4.66146 53.3805 4.76562C53.3544 4.86979 53.2991 4.95768 53.2145 5.0293L51.0367 6.94336L51.6813 9.77539C51.7008 9.87956 51.691 9.98047 51.652 10.0781C51.6194 10.1758 51.5608 10.2572 51.4762 10.3223C51.385 10.3874 51.2874 10.4199 51.1832 10.4199C51.079 10.4264 50.9814 10.4036 50.8902 10.3516L48.4 8.85742L45.9098 10.3516C45.8707 10.3711 45.8251 10.3874 45.773 10.4004C45.7275 10.4134 45.6819 10.4199 45.6363 10.4199C45.5842 10.4199 45.5289 10.4102 45.4703 10.3906C45.4182 10.3776 45.3694 10.3548 45.3238 10.3223C45.2392 10.2572 45.1773 10.1758 45.1383 10.0781C45.1057 9.98047 45.0992 9.87956 45.1188 9.77539L45.7633 6.94336L43.5855 5.0293C43.5009 4.95768 43.4456 4.86979 43.4195 4.76562C43.3935 4.66146 43.3967 4.56055 43.4293 4.46289C43.4619 4.35872 43.5172 4.27409 43.5953 4.20898C43.6799 4.14388 43.7744 4.10482 43.8785 4.0918L46.7691 3.83789L47.9117 1.16211C47.9508 1.06445 48.0159 0.986328 48.107 0.927734C48.1982 0.869141 48.2958 0.839844 48.4 0.839844C48.5042 0.839844 48.6018 0.869141 48.693 0.927734C48.7841 0.986328 48.8492 1.06445 48.8883 1.16211L50.0309 3.83789L52.9215 4.0918C53.0257 4.10482 53.1168 4.14388 53.1949 4.20898C53.2796 4.27409 53.3382 4.35872 53.3707 4.46289Z" fill="#111111"/>
</svg>
