<svg width="36" height="36" viewBox="0 0 36 36" fill="none" xmlns="http://www.w3.org/2000/svg">
<circle cx="18" cy="18" r="17.5" stroke="#555555"/>
<path d="M23.7648 20.9608C22.1604 20.6792 21.4374 18.9264 21.4082 18.852C21.4059 18.8472 21.4044 18.8424 21.4014 18.8376C21.3197 18.66 21.3002 18.5136 21.3452 18.4024C21.4329 18.1832 21.7689 18.0696 21.9909 17.9944C22.0554 17.9728 22.1162 17.952 22.1664 17.9312C22.3855 17.8392 22.5415 17.7392 22.645 17.6264C22.768 17.4912 22.792 17.3616 22.7905 17.2776C22.7867 17.0728 22.6397 16.8904 22.405 16.8016C22.3262 16.7672 22.2354 16.7488 22.1439 16.7488C22.0817 16.7488 21.9887 16.7576 21.9009 16.8016C21.7134 16.8952 21.5454 16.9464 21.4007 16.9536C21.3242 16.9496 21.2702 16.932 21.2349 16.9152C21.2394 16.8352 21.2439 16.7528 21.2492 16.668L21.2514 16.6312C21.3032 15.7648 21.3669 14.6872 21.0984 14.0472C20.9146 13.6088 20.6679 13.232 20.3641 12.9264C20.1098 12.6704 19.8143 12.4624 19.4858 12.3088C18.915 12.04 18.3825 12 18.1155 12H18.1148C18.1043 12 18.0945 12 18.0855 12C18.0113 12.0008 17.8905 12.0024 17.8792 12.0024C17.613 12.0024 17.0797 12.0424 16.5074 12.3112C16.1797 12.4648 15.8857 12.672 15.6321 12.928C15.3299 13.2336 15.0839 13.6096 14.9009 14.0464C14.6323 14.6856 14.6961 15.7632 14.7471 16.6288V16.6304C14.7523 16.7232 14.7583 16.82 14.7636 16.9144C14.7246 16.9328 14.6608 16.9536 14.5671 16.9536C14.4156 16.9536 14.2356 16.9024 14.0323 16.8008C13.9723 16.7712 13.9041 16.756 13.8291 16.756C13.7083 16.756 13.58 16.7936 13.4698 16.8632C13.3303 16.9504 13.2403 17.0728 13.2155 17.2096C13.1998 17.2992 13.2005 17.4776 13.3865 17.6584C13.4893 17.7576 13.6393 17.8496 13.8336 17.9312C13.8846 17.9528 13.9453 17.9728 14.0091 17.9944C14.2311 18.0696 14.5678 18.1832 14.6556 18.4024C14.6998 18.5136 14.6803 18.66 14.5986 18.8376C14.5963 18.8424 14.5941 18.8472 14.5926 18.852C14.5716 18.9032 14.3803 19.3632 13.9881 19.8488C13.7653 20.1248 13.52 20.356 13.259 20.5352C12.9403 20.7544 12.596 20.8968 12.2352 20.96C12.0935 20.9848 11.9922 21.1192 12.0005 21.272C12.0027 21.316 12.0125 21.36 12.0297 21.4024V21.4032C12.0875 21.5464 12.2202 21.6672 12.4362 21.7736C12.7003 21.904 13.0948 22.0136 13.61 22.0992C13.6363 22.152 13.6633 22.284 13.682 22.3744C13.7015 22.4704 13.7218 22.5696 13.7511 22.6744C13.7826 22.788 13.8636 22.924 14.0728 22.924C14.1523 22.924 14.2431 22.9048 14.3488 22.8832C14.5033 22.8512 14.7148 22.8072 14.9781 22.8072C15.1244 22.8072 15.2759 22.8208 15.4281 22.848C15.7221 22.9 15.9757 23.0904 16.2689 23.3112C16.6979 23.6344 17.184 24 17.9265 24C17.9467 24 17.967 23.9992 17.9872 23.9976C18.0113 23.9992 18.042 24 18.0735 24C18.816 24 19.3021 23.6344 19.7311 23.312L19.7318 23.3112C20.0251 23.0912 20.2786 22.9008 20.5726 22.8488C20.7249 22.8216 20.8764 22.808 21.0226 22.808C21.2747 22.808 21.4742 22.8424 21.6519 22.8792C21.7682 22.9032 21.8582 22.9152 21.9279 22.9152H21.9347H21.9414C22.0944 22.9152 22.2069 22.8256 22.2497 22.6696C22.2782 22.5664 22.2985 22.4704 22.3187 22.372C22.336 22.2872 22.3645 22.1512 22.39 22.0984C22.9052 22.012 23.2997 21.9032 23.5638 21.7728C23.779 21.6664 23.9118 21.5456 23.9695 21.4032C23.9868 21.3608 23.9973 21.3168 23.9995 21.2712C24.0078 21.12 23.9065 20.9848 23.7648 20.9608Z" fill="#555555"/>
</svg>
