<svg width="17" height="17" viewBox="0 0 17 17" fill="none" xmlns="http://www.w3.org/2000/svg">
<g id="Recently viewed">
<path id="&#238;&#165;&#145;" d="M17 8.49095C17 7.91161 16.9456 7.34434 16.8369 6.78914C16.7161 6.23394 16.5469 5.70288 16.3294 5.19595C16.124 4.68903 15.8642 4.20625 15.5501 3.7476C15.248 3.28896 14.9037 2.86652 14.5171 2.4803C14.1304 2.10614 13.7075 1.76216 13.2484 1.44835C12.8013 1.14661 12.3241 0.887114 11.8166 0.669862C11.3092 0.452609 10.7775 0.28967 10.2217 0.181044C9.66596 0.0603479 9.09204 0 8.5 0C7.90796 0 7.33404 0.0603479 6.77825 0.181044C6.22246 0.28967 5.69083 0.452609 5.18337 0.669862C4.67591 0.887114 4.19865 1.14661 3.7516 1.44835C3.29247 1.76216 2.86958 2.10614 2.48294 2.4803C2.0963 2.86652 1.75195 3.28896 1.44989 3.7476C1.13575 4.20625 0.869936 4.68903 0.652452 5.19595C0.44705 5.70288 0.283937 6.23394 0.163113 6.78914C0.054371 7.34434 0 7.91161 0 8.49095C0 9.08236 0.054371 9.65566 0.163113 10.2109C0.283937 10.7661 0.44705 11.2971 0.652452 11.804C0.869936 12.311 1.13575 12.7938 1.44989 13.2524C1.75195 13.699 2.0963 14.1154 2.48294 14.5016C2.86958 14.8878 3.29247 15.2318 3.7516 15.5335C4.19865 15.8474 4.67591 16.1129 5.18337 16.3301C5.69083 16.5474 6.22246 16.7103 6.77825 16.819C7.33404 16.9397 7.90796 17 8.5 17C9.09204 17 9.66596 16.9397 10.2217 16.819C10.7775 16.7103 11.3092 16.5474 11.8166 16.3301C12.3241 16.1129 12.8013 15.8474 13.2484 15.5335C13.7075 15.2318 14.1304 14.8878 14.5171 14.5016C14.9037 14.1154 15.248 13.699 15.5501 13.2524C15.8642 12.7938 16.124 12.311 16.3294 11.804C16.5469 11.2971 16.7161 10.7661 16.8369 10.2109C16.9456 9.65566 17 9.08236 17 8.49095ZM15.4595 8.49095C15.4595 9.45651 15.2783 10.3617 14.9158 11.2066C14.5533 12.0515 14.0579 12.7877 13.4296 13.4153C12.7893 14.043 12.0462 14.5378 11.2004 14.8999C10.3667 15.262 9.4666 15.443 8.5 15.443C7.5334 15.443 6.62722 15.262 5.78145 14.8999C4.94776 14.5378 4.21073 14.043 3.57036 13.4153C2.94208 12.7877 2.4467 12.0515 2.08422 11.2066C1.72175 10.3617 1.54051 9.45651 1.54051 8.49095C1.54051 7.53745 1.72175 6.63827 2.08422 5.7934C2.4467 4.94853 2.94208 4.21228 3.57036 3.58466C4.21073 2.95705 4.94776 2.46219 5.78145 2.10011C6.62722 1.72595 7.5334 1.53887 8.5 1.53887C9.4666 1.53887 10.3667 1.72595 11.2004 2.10011C12.0462 2.46219 12.7893 2.95705 13.4296 3.58466C14.0579 4.21228 14.5533 4.94853 14.9158 5.7934C15.2783 6.63827 15.4595 7.53745 15.4595 8.49095ZM7.72068 3.85623V8.49095C7.72068 8.64785 7.75693 8.78665 7.82942 8.90735C7.914 9.02804 8.02274 9.11857 8.15565 9.17891L11.2548 10.7359C11.436 10.8324 11.6294 10.8505 11.8348 10.7902C12.0402 10.7178 12.1912 10.585 12.2878 10.3919C12.3845 10.1988 12.3966 9.99965 12.3241 9.79446C12.2637 9.58928 12.1368 9.43841 11.9435 9.34185L9.27932 8.02023V3.85623C9.27932 3.65105 9.20078 3.47604 9.04371 3.3312C8.89872 3.1743 8.71748 3.09585 8.5 3.09585C8.28252 3.09585 8.09524 3.1743 7.93817 3.3312C7.79318 3.47604 7.72068 3.65105 7.72068 3.85623Z" fill="#111111"/>
</g>
</svg>
